<?xml version="1.0" standalone="no"?>
<!DOCTYPE svg PUBLIC "-//W3C//DTD SVG 20010904//EN"
 "http://www.w3.org/TR/2001/REC-SVG-20010904/DTD/svg10.dtd">
<svg version="1.0" xmlns="http://www.w3.org/2000/svg"
 width="377.000000pt" height="377.000000pt" viewBox="0 0 377.000000 377.000000"
 preserveAspectRatio="xMidYMid meet">
<metadata>
Created by potrace 1.11, written by Peter Selinger 2001-2013
</metadata>
<g transform="translate(0.000000,377.000000) scale(0.100000,-0.100000)"
fill="#000000" stroke="none">
<path d="M440 1895 l0 -1815 450 0 450 0 0 730 0 730 338 0 c367 0 577 11 692
35 276 58 479 179 641 383 155 193 224 376 236 623 15 318 -87 578 -318 807
-149 148 -317 236 -564 294 -88 21 -112 22 -1007 25 l-918 4 0 -1816z m1551
1132 c110 -26 176 -56 227 -102 86 -77 126 -217 104 -364 -26 -180 -121 -279
-320 -333 -67 -18 -116 -21 -369 -25 l-293 -5 0 427 0 427 293 -5 c215 -4 309
-9 358 -20z"/>
</g>
</svg>
